{
	"asset":{
		"generator":"Khronos glTF Blender I/O v4.3.47",
		"version":"2.0"
	},
	"extensionsUsed":[
		"KHR_materials_specular"
	],
	"scene":0,
	"scenes":[
		{
			"name":"Scene",
			"nodes":[
				4
			]
		}
	],
	"nodes":[
		{
			"name":"CrownCenter",
			"translation":[
				0.045720674097537994,
				3.984360456466675,
				-0.02588960900902748
			]
		},
		{
			"name":"GroundAnchor"
		},
		{
			"mesh":0,
			"name":"Tree_Branch_LOD2"
		},
		{
			"mesh":1,
			"name":"Tree_Foliage_LOD2"
		},
		{
			"children":[
				0,
				1,
				2,
				3
			],
			"name":"TreeRoot"
		}
	],
	"materials":[
		{
			"doubleSided":true,
			"name":"bark",
			"normalTexture":{
				"index":0,
				"scale":0.4000000059604645
			},
			"pbrMetallicRoughness":{
				"baseColorTexture":{
					"index":1
				},
				"metallicFactor":0,
				"metallicRoughnessTexture":{
					"index":2
				}
			}
		},
		{
			"alphaMode":"MASK",
			"doubleSided":true,
			"extensions":{
				"KHR_materials_specular":{
					"specularFactor":0.36000001430511475
				}
			},
			"name":"foliage_sun",
			"normalTexture":{
				"index":3,
				"scale":0.25
			},
			"pbrMetallicRoughness":{
				"baseColorTexture":{
					"index":4
				},
				"metallicFactor":0,
				"roughnessFactor":0.7799999713897705
			}
		},
		{
			"alphaMode":"MASK",
			"doubleSided":true,
			"extensions":{
				"KHR_materials_specular":{
					"specularFactor":0.36000001430511475
				}
			},
			"name":"foliage_shade",
			"normalTexture":{
				"index":5,
				"scale":0.25
			},
			"pbrMetallicRoughness":{
				"baseColorTexture":{
					"index":6
				},
				"metallicFactor":0,
				"roughnessFactor":0.7799999713897705
			}
		}
	],
	"meshes":[
		{
			"name":"Tree_Branch_LOD2",
			"primitives":[
				{
					"attributes":{
						"POSITION":0,
						"NORMAL":1,
						"TEXCOORD_0":2,
						"TANGENT":3
					},
					"indices":4,
					"material":0
				}
			]
		},
		{
			"name":"Tree_Foliage_LOD2",
			"primitives":[
				{
					"attributes":{
						"POSITION":5,
						"NORMAL":6,
						"TEXCOORD_0":7,
						"TANGENT":8
					},
					"indices":9,
					"material":1
				},
				{
					"attributes":{
						"POSITION":10,
						"NORMAL":11,
						"TEXCOORD_0":12,
						"TANGENT":13
					},
					"indices":14,
					"material":2
				}
			]
		}
	],
	"textures":[
		{
			"sampler":0,
			"source":0
		},
		{
			"sampler":0,
			"source":1
		},
		{
			"sampler":0,
			"source":2
		},
		{
			"sampler":0,
			"source":3
		},
		{
			"sampler":0,
			"source":4
		},
		{
			"sampler":0,
			"source":3
		},
		{
			"sampler":0,
			"source":4
		}
	],
	"images":[
		{
			"mimeType":"image/png",
			"name":"Bark014_1K-PNG_NormalGL",
			"uri":"textures/Bark014_1K-PNG_NormalGL.png"
		},
		{
			"mimeType":"image/png",
			"name":"Bark014_1K-PNG_Color",
			"uri":"textures/Bark014_1K-PNG_Color.png"
		},
		{
			"mimeType":"image/png",
			"name":"Bark014_1K-PNG_Roughness",
			"uri":"textures/Bark014_1K-PNG_Roughness.png"
		},
		{
			"mimeType":"image/png",
			"name":"LeafSet026_1K-PNG_NormalGL",
			"uri":"textures/LeafSet026_1K-PNG_NormalGL.png"
		},
		{
			"mimeType":"image/png",
			"name":"LeafSet026_1K-PNG_Color-LeafSet026_1K-PNG_Opacity",
			"uri":"textures/LeafSet026_1K-PNG_Color-LeafSet026_1K-PNG_Opacity.png"
		}
	],
	"accessors":[
		{
			"bufferView":0,
			"componentType":5126,
			"count":127,
			"max":[
				1.1406363248825073,
				4.452491760253906,
				0.9092761874198914
			],
			"min":[
				-1.1701676845550537,
				0,
				-0.8509921431541443
			],
			"type":"VEC3"
		},
		{
			"bufferView":1,
			"componentType":5126,
			"count":127,
			"type":"VEC3"
		},
		{
			"bufferView":2,
			"componentType":5126,
			"count":127,
			"type":"VEC2"
		},
		{
			"bufferView":3,
			"componentType":5126,
			"count":127,
			"type":"VEC4"
		},
		{
			"bufferView":4,
			"componentType":5123,
			"count":393,
			"type":"SCALAR"
		},
		{
			"bufferView":5,
			"componentType":5126,
			"count":564,
			"max":[
				1.6801763772964478,
				4.924562931060791,
				1.5563530921936035
			],
			"min":[
				-1.7726237773895264,
				2.9826602935791016,
				-1.566299319267273
			],
			"type":"VEC3"
		},
		{
			"bufferView":6,
			"componentType":5126,
			"count":564,
			"type":"VEC3"
		},
		{
			"bufferView":7,
			"componentType":5126,
			"count":564,
			"type":"VEC2"
		},
		{
			"bufferView":8,
			"componentType":5126,
			"count":564,
			"type":"VEC4"
		},
		{
			"bufferView":9,
			"componentType":5123,
			"count":846,
			"type":"SCALAR"
		},
		{
			"bufferView":10,
			"componentType":5126,
			"count":492,
			"max":[
				1.304292917251587,
				4.944765090942383,
				1.4773648977279663
			],
			"min":[
				-1.3988198041915894,
				3.1055359840393066,
				-1.5020387172698975
			],
			"type":"VEC3"
		},
		{
			"bufferView":11,
			"componentType":5126,
			"count":492,
			"type":"VEC3"
		},
		{
			"bufferView":12,
			"componentType":5126,
			"count":492,
			"type":"VEC2"
		},
		{
			"bufferView":13,
			"componentType":5126,
			"count":492,
			"type":"VEC4"
		},
		{
			"bufferView":14,
			"componentType":5123,
			"count":738,
			"type":"SCALAR"
		}
	],
	"bufferViews":[
		{
			"buffer":0,
			"byteLength":1524,
			"byteOffset":0,
			"target":34962
		},
		{
			"buffer":0,
			"byteLength":1524,
			"byteOffset":1524,
			"target":34962
		},
		{
			"buffer":0,
			"byteLength":1016,
			"byteOffset":3048,
			"target":34962
		},
		{
			"buffer":0,
			"byteLength":2032,
			"byteOffset":4064,
			"target":34962
		},
		{
			"buffer":0,
			"byteLength":786,
			"byteOffset":6096,
			"target":34963
		},
		{
			"buffer":0,
			"byteLength":6768,
			"byteOffset":6884,
			"target":34962
		},
		{
			"buffer":0,
			"byteLength":6768,
			"byteOffset":13652,
			"target":34962
		},
		{
			"buffer":0,
			"byteLength":4512,
			"byteOffset":20420,
			"target":34962
		},
		{
			"buffer":0,
			"byteLength":9024,
			"byteOffset":24932,
			"target":34962
		},
		{
			"buffer":0,
			"byteLength":1692,
			"byteOffset":33956,
			"target":34963
		},
		{
			"buffer":0,
			"byteLength":5904,
			"byteOffset":35648,
			"target":34962
		},
		{
			"buffer":0,
			"byteLength":5904,
			"byteOffset":41552,
			"target":34962
		},
		{
			"buffer":0,
			"byteLength":3936,
			"byteOffset":47456,
			"target":34962
		},
		{
			"buffer":0,
			"byteLength":7872,
			"byteOffset":51392,
			"target":34962
		},
		{
			"buffer":0,
			"byteLength":1476,
			"byteOffset":59264,
			"target":34963
		}
	],
	"samplers":[
		{
			"magFilter":9729,
			"minFilter":9987
		}
	],
	"buffers":[
		{
			"byteLength":60740,
			"uri":"organic-tree-lod2.bin"
		}
	]
}
