{
	"asset":{
		"generator":"Khronos glTF Blender I/O v4.3.47",
		"version":"2.0"
	},
	"extensionsUsed":[
		"KHR_materials_specular"
	],
	"scene":0,
	"scenes":[
		{
			"name":"Scene",
			"nodes":[
				4
			]
		}
	],
	"nodes":[
		{
			"name":"CrownCenter",
			"translation":[
				0.039333708584308624,
				4.056859970092773,
				-0.04141416773200035
			]
		},
		{
			"name":"GroundAnchor"
		},
		{
			"mesh":0,
			"name":"Tree_Branch_LOD0"
		},
		{
			"mesh":1,
			"name":"Tree_Foliage_LOD0"
		},
		{
			"children":[
				0,
				1,
				2,
				3
			],
			"name":"TreeRoot"
		}
	],
	"materials":[
		{
			"doubleSided":true,
			"name":"bark",
			"normalTexture":{
				"index":0,
				"scale":0.4000000059604645
			},
			"pbrMetallicRoughness":{
				"baseColorTexture":{
					"index":1
				},
				"metallicFactor":0,
				"metallicRoughnessTexture":{
					"index":2
				}
			}
		},
		{
			"alphaMode":"MASK",
			"doubleSided":true,
			"extensions":{
				"KHR_materials_specular":{
					"specularFactor":0.36000001430511475
				}
			},
			"name":"foliage_sun",
			"normalTexture":{
				"index":3,
				"scale":0.25
			},
			"pbrMetallicRoughness":{
				"baseColorTexture":{
					"index":4
				},
				"metallicFactor":0,
				"roughnessFactor":0.7799999713897705
			}
		},
		{
			"alphaMode":"MASK",
			"doubleSided":true,
			"extensions":{
				"KHR_materials_specular":{
					"specularFactor":0.36000001430511475
				}
			},
			"name":"foliage_shade",
			"normalTexture":{
				"index":5,
				"scale":0.25
			},
			"pbrMetallicRoughness":{
				"baseColorTexture":{
					"index":6
				},
				"metallicFactor":0,
				"roughnessFactor":0.7799999713897705
			}
		}
	],
	"meshes":[
		{
			"name":"Tree_Branch_LOD0",
			"primitives":[
				{
					"attributes":{
						"POSITION":0,
						"NORMAL":1,
						"TEXCOORD_0":2,
						"TANGENT":3
					},
					"indices":4,
					"material":0
				}
			]
		},
		{
			"name":"Tree_Foliage_LOD0",
			"primitives":[
				{
					"attributes":{
						"POSITION":5,
						"NORMAL":6,
						"TEXCOORD_0":7,
						"TANGENT":8
					},
					"indices":9,
					"material":1
				},
				{
					"attributes":{
						"POSITION":10,
						"NORMAL":11,
						"TEXCOORD_0":12,
						"TANGENT":13
					},
					"indices":14,
					"material":2
				}
			]
		}
	],
	"textures":[
		{
			"sampler":0,
			"source":0
		},
		{
			"sampler":0,
			"source":1
		},
		{
			"sampler":0,
			"source":2
		},
		{
			"sampler":0,
			"source":3
		},
		{
			"sampler":0,
			"source":4
		},
		{
			"sampler":0,
			"source":3
		},
		{
			"sampler":0,
			"source":4
		}
	],
	"images":[
		{
			"mimeType":"image/png",
			"name":"Bark014_1K-PNG_NormalGL",
			"uri":"textures/Bark014_1K-PNG_NormalGL.png"
		},
		{
			"mimeType":"image/png",
			"name":"Bark014_1K-PNG_Color",
			"uri":"textures/Bark014_1K-PNG_Color.png"
		},
		{
			"mimeType":"image/png",
			"name":"Bark014_1K-PNG_Roughness",
			"uri":"textures/Bark014_1K-PNG_Roughness.png"
		},
		{
			"mimeType":"image/png",
			"name":"LeafSet026_1K-PNG_NormalGL",
			"uri":"textures/LeafSet026_1K-PNG_NormalGL.png"
		},
		{
			"mimeType":"image/png",
			"name":"LeafSet026_1K-PNG_Color-LeafSet026_1K-PNG_Opacity",
			"uri":"textures/LeafSet026_1K-PNG_Color-LeafSet026_1K-PNG_Opacity.png"
		}
	],
	"accessors":[
		{
			"bufferView":0,
			"componentType":5126,
			"count":856,
			"max":[
				1.150954008102417,
				4.900969505310059,
				0.9101672768592834
			],
			"min":[
				-1.17121160030365,
				0,
				-1.1665875911712646
			],
			"type":"VEC3"
		},
		{
			"bufferView":1,
			"componentType":5126,
			"count":856,
			"type":"VEC3"
		},
		{
			"bufferView":2,
			"componentType":5126,
			"count":856,
			"type":"VEC2"
		},
		{
			"bufferView":3,
			"componentType":5126,
			"count":856,
			"type":"VEC4"
		},
		{
			"bufferView":4,
			"componentType":5123,
			"count":3576,
			"type":"SCALAR"
		},
		{
			"bufferView":5,
			"componentType":5126,
			"count":4994,
			"max":[
				1.7970361709594727,
				5.254534721374512,
				1.4431729316711426
			],
			"min":[
				-1.7270729541778564,
				2.9249138832092285,
				-1.661329984664917
			],
			"type":"VEC3"
		},
		{
			"bufferView":6,
			"componentType":5126,
			"count":4994,
			"type":"VEC3"
		},
		{
			"bufferView":7,
			"componentType":5126,
			"count":4994,
			"type":"VEC2"
		},
		{
			"bufferView":8,
			"componentType":5126,
			"count":4994,
			"type":"VEC4"
		},
		{
			"bufferView":9,
			"componentType":5123,
			"count":8172,
			"type":"SCALAR"
		},
		{
			"bufferView":10,
			"componentType":5126,
			"count":2706,
			"max":[
				1.5760681629180908,
				4.998934268951416,
				1.1800670623779297
			],
			"min":[
				-1.4097559452056885,
				3.109731674194336,
				-1.3850688934326172
			],
			"type":"VEC3"
		},
		{
			"bufferView":11,
			"componentType":5126,
			"count":2706,
			"type":"VEC3"
		},
		{
			"bufferView":12,
			"componentType":5126,
			"count":2706,
			"type":"VEC2"
		},
		{
			"bufferView":13,
			"componentType":5126,
			"count":2706,
			"type":"VEC4"
		},
		{
			"bufferView":14,
			"componentType":5123,
			"count":4428,
			"type":"SCALAR"
		}
	],
	"bufferViews":[
		{
			"buffer":0,
			"byteLength":10272,
			"byteOffset":0,
			"target":34962
		},
		{
			"buffer":0,
			"byteLength":10272,
			"byteOffset":10272,
			"target":34962
		},
		{
			"buffer":0,
			"byteLength":6848,
			"byteOffset":20544,
			"target":34962
		},
		{
			"buffer":0,
			"byteLength":13696,
			"byteOffset":27392,
			"target":34962
		},
		{
			"buffer":0,
			"byteLength":7152,
			"byteOffset":41088,
			"target":34963
		},
		{
			"buffer":0,
			"byteLength":59928,
			"byteOffset":48240,
			"target":34962
		},
		{
			"buffer":0,
			"byteLength":59928,
			"byteOffset":108168,
			"target":34962
		},
		{
			"buffer":0,
			"byteLength":39952,
			"byteOffset":168096,
			"target":34962
		},
		{
			"buffer":0,
			"byteLength":79904,
			"byteOffset":208048,
			"target":34962
		},
		{
			"buffer":0,
			"byteLength":16344,
			"byteOffset":287952,
			"target":34963
		},
		{
			"buffer":0,
			"byteLength":32472,
			"byteOffset":304296,
			"target":34962
		},
		{
			"buffer":0,
			"byteLength":32472,
			"byteOffset":336768,
			"target":34962
		},
		{
			"buffer":0,
			"byteLength":21648,
			"byteOffset":369240,
			"target":34962
		},
		{
			"buffer":0,
			"byteLength":43296,
			"byteOffset":390888,
			"target":34962
		},
		{
			"buffer":0,
			"byteLength":8856,
			"byteOffset":434184,
			"target":34963
		}
	],
	"samplers":[
		{
			"magFilter":9729,
			"minFilter":9987
		}
	],
	"buffers":[
		{
			"byteLength":443040,
			"uri":"organic-tree-lod0.bin"
		}
	]
}
