{
	"asset":{
		"generator":"Khronos glTF Blender I/O v4.3.47",
		"version":"2.0"
	},
	"extensionsUsed":[
		"KHR_materials_specular"
	],
	"scene":0,
	"scenes":[
		{
			"name":"Scene",
			"nodes":[
				4
			]
		}
	],
	"nodes":[
		{
			"name":"CrownCenter",
			"translation":[
				0.025426264852285385,
				4.060556888580322,
				-0.030307497829198837
			]
		},
		{
			"name":"GroundAnchor"
		},
		{
			"mesh":0,
			"name":"Tree_Branch_LOD1"
		},
		{
			"mesh":1,
			"name":"Tree_Foliage_LOD1"
		},
		{
			"children":[
				0,
				1,
				2,
				3
			],
			"name":"TreeRoot"
		}
	],
	"materials":[
		{
			"doubleSided":true,
			"name":"bark",
			"normalTexture":{
				"index":0,
				"scale":0.4000000059604645
			},
			"pbrMetallicRoughness":{
				"baseColorTexture":{
					"index":1
				},
				"metallicFactor":0,
				"metallicRoughnessTexture":{
					"index":2
				}
			}
		},
		{
			"alphaMode":"MASK",
			"doubleSided":true,
			"extensions":{
				"KHR_materials_specular":{
					"specularFactor":0.36000001430511475
				}
			},
			"name":"foliage_sun",
			"normalTexture":{
				"index":3,
				"scale":0.25
			},
			"pbrMetallicRoughness":{
				"baseColorTexture":{
					"index":4
				},
				"metallicFactor":0,
				"roughnessFactor":0.7799999713897705
			}
		},
		{
			"alphaMode":"MASK",
			"doubleSided":true,
			"extensions":{
				"KHR_materials_specular":{
					"specularFactor":0.36000001430511475
				}
			},
			"name":"foliage_shade",
			"normalTexture":{
				"index":5,
				"scale":0.25
			},
			"pbrMetallicRoughness":{
				"baseColorTexture":{
					"index":6
				},
				"metallicFactor":0,
				"roughnessFactor":0.7799999713897705
			}
		}
	],
	"meshes":[
		{
			"name":"Tree_Branch_LOD1",
			"primitives":[
				{
					"attributes":{
						"POSITION":0,
						"NORMAL":1,
						"TEXCOORD_0":2,
						"TANGENT":3
					},
					"indices":4,
					"material":0
				}
			]
		},
		{
			"name":"Tree_Foliage_LOD1",
			"primitives":[
				{
					"attributes":{
						"POSITION":5,
						"NORMAL":6,
						"TEXCOORD_0":7,
						"TANGENT":8
					},
					"indices":9,
					"material":1
				},
				{
					"attributes":{
						"POSITION":10,
						"NORMAL":11,
						"TEXCOORD_0":12,
						"TANGENT":13
					},
					"indices":14,
					"material":2
				}
			]
		}
	],
	"textures":[
		{
			"sampler":0,
			"source":0
		},
		{
			"sampler":0,
			"source":1
		},
		{
			"sampler":0,
			"source":2
		},
		{
			"sampler":0,
			"source":3
		},
		{
			"sampler":0,
			"source":4
		},
		{
			"sampler":0,
			"source":3
		},
		{
			"sampler":0,
			"source":4
		}
	],
	"images":[
		{
			"mimeType":"image/png",
			"name":"Bark014_1K-PNG_NormalGL",
			"uri":"textures/Bark014_1K-PNG_NormalGL.png"
		},
		{
			"mimeType":"image/png",
			"name":"Bark014_1K-PNG_Color",
			"uri":"textures/Bark014_1K-PNG_Color.png"
		},
		{
			"mimeType":"image/png",
			"name":"Bark014_1K-PNG_Roughness",
			"uri":"textures/Bark014_1K-PNG_Roughness.png"
		},
		{
			"mimeType":"image/png",
			"name":"LeafSet026_1K-PNG_NormalGL",
			"uri":"textures/LeafSet026_1K-PNG_NormalGL.png"
		},
		{
			"mimeType":"image/png",
			"name":"LeafSet026_1K-PNG_Color-LeafSet026_1K-PNG_Opacity",
			"uri":"textures/LeafSet026_1K-PNG_Color-LeafSet026_1K-PNG_Opacity.png"
		}
	],
	"accessors":[
		{
			"bufferView":0,
			"componentType":5126,
			"count":283,
			"max":[
				1.1515592336654663,
				4.4528093338012695,
				0.9052414894104004
			],
			"min":[
				-1.1687816381454468,
				0,
				-1.1076161861419678
			],
			"type":"VEC3"
		},
		{
			"bufferView":1,
			"componentType":5126,
			"count":283,
			"type":"VEC3"
		},
		{
			"bufferView":2,
			"componentType":5126,
			"count":283,
			"type":"VEC2"
		},
		{
			"bufferView":3,
			"componentType":5126,
			"count":283,
			"type":"VEC4"
		},
		{
			"bufferView":4,
			"componentType":5123,
			"count":1059,
			"type":"SCALAR"
		},
		{
			"bufferView":5,
			"componentType":5126,
			"count":1792,
			"max":[
				1.6373261213302612,
				5.256246566772461,
				1.4294767379760742
			],
			"min":[
				-1.5521184206008911,
				3.0442445278167725,
				-1.6634935140609741
			],
			"type":"VEC3"
		},
		{
			"bufferView":6,
			"componentType":5126,
			"count":1792,
			"type":"VEC3"
		},
		{
			"bufferView":7,
			"componentType":5126,
			"count":1792,
			"type":"VEC2"
		},
		{
			"bufferView":8,
			"componentType":5126,
			"count":1792,
			"type":"VEC4"
		},
		{
			"bufferView":9,
			"componentType":5123,
			"count":2688,
			"type":"SCALAR"
		},
		{
			"bufferView":10,
			"componentType":5126,
			"count":768,
			"max":[
				1.4777510166168213,
				5.019132137298584,
				1.274411678314209
			],
			"min":[
				-1.4627478122711182,
				3.230984926223755,
				-1.3217355012893677
			],
			"type":"VEC3"
		},
		{
			"bufferView":11,
			"componentType":5126,
			"count":768,
			"type":"VEC3"
		},
		{
			"bufferView":12,
			"componentType":5126,
			"count":768,
			"type":"VEC2"
		},
		{
			"bufferView":13,
			"componentType":5126,
			"count":768,
			"type":"VEC4"
		},
		{
			"bufferView":14,
			"componentType":5123,
			"count":1152,
			"type":"SCALAR"
		}
	],
	"bufferViews":[
		{
			"buffer":0,
			"byteLength":3396,
			"byteOffset":0,
			"target":34962
		},
		{
			"buffer":0,
			"byteLength":3396,
			"byteOffset":3396,
			"target":34962
		},
		{
			"buffer":0,
			"byteLength":2264,
			"byteOffset":6792,
			"target":34962
		},
		{
			"buffer":0,
			"byteLength":4528,
			"byteOffset":9056,
			"target":34962
		},
		{
			"buffer":0,
			"byteLength":2118,
			"byteOffset":13584,
			"target":34963
		},
		{
			"buffer":0,
			"byteLength":21504,
			"byteOffset":15704,
			"target":34962
		},
		{
			"buffer":0,
			"byteLength":21504,
			"byteOffset":37208,
			"target":34962
		},
		{
			"buffer":0,
			"byteLength":14336,
			"byteOffset":58712,
			"target":34962
		},
		{
			"buffer":0,
			"byteLength":28672,
			"byteOffset":73048,
			"target":34962
		},
		{
			"buffer":0,
			"byteLength":5376,
			"byteOffset":101720,
			"target":34963
		},
		{
			"buffer":0,
			"byteLength":9216,
			"byteOffset":107096,
			"target":34962
		},
		{
			"buffer":0,
			"byteLength":9216,
			"byteOffset":116312,
			"target":34962
		},
		{
			"buffer":0,
			"byteLength":6144,
			"byteOffset":125528,
			"target":34962
		},
		{
			"buffer":0,
			"byteLength":12288,
			"byteOffset":131672,
			"target":34962
		},
		{
			"buffer":0,
			"byteLength":2304,
			"byteOffset":143960,
			"target":34963
		}
	],
	"samplers":[
		{
			"magFilter":9729,
			"minFilter":9987
		}
	],
	"buffers":[
		{
			"byteLength":146264,
			"uri":"organic-tree-lod1.bin"
		}
	]
}
